<mxfile host="Electron" agent="Mozilla/5.0 (Windows NT 10.0; Win64; x64) AppleWebKit/537.36 (KHTML, like Gecko) draw.io/24.7.5 Chrome/126.0.6478.183 Electron/31.3.0 Safari/537.36" version="24.7.5">
  <diagram name="Page-1" id="_wrUZ2G7mPHjzHLz-zgs">
    <mxGraphModel dx="989" dy="577" grid="1" gridSize="10" guides="1" tooltips="1" connect="1" arrows="1" fold="1" page="1" pageScale="1" pageWidth="827" pageHeight="1169" math="0" shadow="0">
      <root>
        <mxCell id="0" />
        <mxCell id="1" parent="0" />
        <mxCell id="E08D3-PspMYsn6ZNW5-s-6" value="&lt;font color=&quot;#97d077&quot;&gt;Invoke in requests&lt;/font&gt;" style="edgeStyle=orthogonalEdgeStyle;rounded=0;orthogonalLoop=1;jettySize=auto;html=1;exitX=0;exitY=1;exitDx=0;exitDy=0;entryX=0;entryY=0;entryDx=0;entryDy=0;fillColor=#60a917;strokeColor=#2D7600;" edge="1" parent="1" source="E08D3-PspMYsn6ZNW5-s-1" target="E08D3-PspMYsn6ZNW5-s-2">
          <mxGeometry relative="1" as="geometry" />
        </mxCell>
        <mxCell id="E08D3-PspMYsn6ZNW5-s-1" value="&lt;font style=&quot;font-size: 18px;&quot;&gt;&lt;b style=&quot;&quot;&gt;Handler Class&lt;br&gt;&lt;/b&gt;&lt;/font&gt;&lt;font color=&quot;#97d077&quot;&gt;Request Handlers&lt;br&gt;&lt;/font&gt;&lt;font color=&quot;#0ebbf0&quot;&gt;Event Handlers&lt;/font&gt;" style="ellipse;whiteSpace=wrap;html=1;" vertex="1" parent="1">
          <mxGeometry x="100" y="210" width="150" height="100" as="geometry" />
        </mxCell>
        <mxCell id="E08D3-PspMYsn6ZNW5-s-5" style="edgeStyle=orthogonalEdgeStyle;rounded=0;orthogonalLoop=1;jettySize=auto;html=1;exitX=1;exitY=0;exitDx=0;exitDy=0;entryX=1;entryY=1;entryDx=0;entryDy=0;fillColor=#1ba1e2;strokeColor=#006EAF;" edge="1" parent="1" source="E08D3-PspMYsn6ZNW5-s-2" target="E08D3-PspMYsn6ZNW5-s-1">
          <mxGeometry relative="1" as="geometry" />
        </mxCell>
        <mxCell id="E08D3-PspMYsn6ZNW5-s-7" value="&lt;font color=&quot;#0ebbf0&quot;&gt;Use Event Handlers&lt;/font&gt;" style="edgeLabel;html=1;align=center;verticalAlign=middle;resizable=0;points=[];" vertex="1" connectable="0" parent="E08D3-PspMYsn6ZNW5-s-5">
          <mxGeometry x="0.1491" y="2" relative="1" as="geometry">
            <mxPoint as="offset" />
          </mxGeometry>
        </mxCell>
        <mxCell id="E08D3-PspMYsn6ZNW5-s-2" value="&lt;font style=&quot;font-size: 18px;&quot;&gt;&lt;b&gt;Invoker Class&lt;/b&gt;&lt;/font&gt;" style="ellipse;whiteSpace=wrap;html=1;" vertex="1" parent="1">
          <mxGeometry x="100" y="370" width="150" height="110" as="geometry" />
        </mxCell>
        <mxCell id="E08D3-PspMYsn6ZNW5-s-9" value="&lt;span style=&quot;font-size: 18px;&quot;&gt;&lt;b&gt;&lt;font color=&quot;#97d077&quot;&gt;Requests Class&lt;br&gt;&lt;/font&gt;&lt;/b&gt;&lt;/span&gt;&lt;span style=&quot;color: rgb(151, 208, 119);&quot;&gt;Request Handlers&lt;/span&gt;" style="ellipse;whiteSpace=wrap;html=1;" vertex="1" parent="1">
          <mxGeometry x="390" y="220" width="150" height="100" as="geometry" />
        </mxCell>
        <mxCell id="E08D3-PspMYsn6ZNW5-s-12" value="&lt;font style=&quot;font-size: 18px;&quot;&gt;&lt;b&gt;Invoker Class&lt;/b&gt;&lt;/font&gt;" style="ellipse;whiteSpace=wrap;html=1;" vertex="1" parent="1">
          <mxGeometry x="490" y="380" width="150" height="110" as="geometry" />
        </mxCell>
        <mxCell id="E08D3-PspMYsn6ZNW5-s-13" value="&lt;font color=&quot;#0ebbf0&quot; style=&quot;font-size: 18px;&quot;&gt;&lt;b style=&quot;&quot;&gt;Events Class&lt;br&gt;&lt;/b&gt;&lt;/font&gt;&lt;span style=&quot;color: rgb(14, 187, 240);&quot;&gt;Event Handlers&lt;/span&gt;" style="ellipse;whiteSpace=wrap;html=1;" vertex="1" parent="1">
          <mxGeometry x="600" y="220" width="150" height="100" as="geometry" />
        </mxCell>
        <mxCell id="E08D3-PspMYsn6ZNW5-s-14" style="rounded=0;orthogonalLoop=1;jettySize=auto;html=1;exitX=1;exitY=0;exitDx=0;exitDy=0;entryX=0.5;entryY=1;entryDx=0;entryDy=0;fillColor=#1ba1e2;strokeColor=#006EAF;" edge="1" parent="1" source="E08D3-PspMYsn6ZNW5-s-12" target="E08D3-PspMYsn6ZNW5-s-13">
          <mxGeometry relative="1" as="geometry">
            <mxPoint x="640" y="390" as="sourcePoint" />
            <mxPoint x="640" y="299" as="targetPoint" />
          </mxGeometry>
        </mxCell>
        <mxCell id="E08D3-PspMYsn6ZNW5-s-15" value="&lt;font color=&quot;#0ebbf0&quot;&gt;Use Event Handlers&lt;/font&gt;" style="edgeLabel;html=1;align=center;verticalAlign=middle;resizable=0;points=[];" vertex="1" connectable="0" parent="E08D3-PspMYsn6ZNW5-s-14">
          <mxGeometry x="0.1491" y="2" relative="1" as="geometry">
            <mxPoint as="offset" />
          </mxGeometry>
        </mxCell>
        <mxCell id="E08D3-PspMYsn6ZNW5-s-16" value="&lt;font color=&quot;#97d077&quot;&gt;Invoke in requests&lt;/font&gt;" style="rounded=0;orthogonalLoop=1;jettySize=auto;html=1;exitX=0.5;exitY=1;exitDx=0;exitDy=0;entryX=0;entryY=0;entryDx=0;entryDy=0;fillColor=#60a917;strokeColor=#2D7600;" edge="1" parent="1" source="E08D3-PspMYsn6ZNW5-s-9" target="E08D3-PspMYsn6ZNW5-s-12">
          <mxGeometry relative="1" as="geometry">
            <mxPoint x="400" y="340" as="sourcePoint" />
            <mxPoint x="400" y="431" as="targetPoint" />
          </mxGeometry>
        </mxCell>
        <mxCell id="E08D3-PspMYsn6ZNW5-s-17" value="&lt;font color=&quot;#c7c7c7&quot; style=&quot;font-size: 21px;&quot;&gt;OLD (Circular dependency)&lt;/font&gt;" style="text;html=1;align=center;verticalAlign=middle;resizable=0;points=[];autosize=1;strokeColor=none;fillColor=none;" vertex="1" parent="1">
          <mxGeometry x="35" y="153" width="280" height="40" as="geometry" />
        </mxCell>
        <mxCell id="E08D3-PspMYsn6ZNW5-s-18" value="&lt;font style=&quot;font-size: 21px;&quot;&gt;&lt;b&gt;NEW&lt;/b&gt;&lt;/font&gt;&lt;div style=&quot;font-size: 21px;&quot;&gt;&lt;br&gt;&lt;/div&gt;" style="text;html=1;align=center;verticalAlign=middle;resizable=0;points=[];autosize=1;strokeColor=none;fillColor=none;" vertex="1" parent="1">
          <mxGeometry x="530" y="160" width="70" height="60" as="geometry" />
        </mxCell>
      </root>
    </mxGraphModel>
  </diagram>
</mxfile>
